<?xml version="1.0" encoding="UTF-8" standalone="no"?>
<svg
   xmlns:dc="http://purl.org/dc/elements/1.1/"
   xmlns:cc="http://creativecommons.org/ns#"
   xmlns:rdf="http://www.w3.org/1999/02/22-rdf-syntax-ns#"
   xmlns:svg="http://www.w3.org/2000/svg"
   xmlns="http://www.w3.org/2000/svg"
   xmlns:sodipodi="http://sodipodi.sourceforge.net/DTD/sodipodi-0.dtd"
   xmlns:inkscape="http://www.inkscape.org/namespaces/inkscape"
   viewBox="0 0 210.45473 210.49068"
   version="1.1"
   id="svg4"
   sodipodi:docname="fa-fa-search.svg"
   width="210.45473"
   height="210.49068"
   inkscape:export-filename="/media/rassenguy/6798-9AFA/Fernando/Websites/kushobi/img/widgets/fa-fa-search.png"
   inkscape:export-xdpi="96"
   inkscape:export-ydpi="96"
   inkscape:version="0.92.2 (5c3e80d, 2017-08-06)">
  <metadata
     id="metadata10">
    <rdf:RDF>
      <cc:Work
         rdf:about="">
        <dc:format>image/svg+xml</dc:format>
        <dc:type
           rdf:resource="http://purl.org/dc/dcmitype/StillImage" />
        <dc:title></dc:title>
      </cc:Work>
    </rdf:RDF>
  </metadata>
  <defs
     id="defs8" />
  <sodipodi:namedview
     pagecolor="#ffffff"
     bordercolor="#666666"
     borderopacity="1"
     objecttolerance="10"
     gridtolerance="10"
     guidetolerance="10"
     inkscape:pageopacity="0"
     inkscape:pageshadow="2"
     inkscape:window-width="1411"
     inkscape:window-height="827"
     id="namedview6"
     showgrid="false"
     fit-margin-top="0"
     fit-margin-left="0"
     fit-margin-right="0"
     fit-margin-bottom="0"
     inkscape:zoom="0.4609375"
     inkscape:cx="-170.30508"
     inkscape:cy="-45.509325"
     inkscape:window-x="0"
     inkscape:window-y="27"
     inkscape:window-maximized="0"
     inkscape:current-layer="svg4" />
  <path
     d="m 207.5926,181.98266 -40.98412,-40.98412 c -1.84984,-1.84983 -4.35739,-2.87752 -6.98827,-2.87752 H 152.9197 C 164.26535,123.61009 171.00698,105.35838 171.00698,85.503488 171.00698,38.271032 132.73594,0 85.503488,0 38.271032,0 0,38.271032 0,85.503488 c 0,47.232452 38.271032,85.503492 85.503488,85.503492 19.854892,0 38.106602,-6.74163 52.617532,-18.08728 v 6.70051 c 0,2.63088 1.02769,5.13843 2.87752,6.98827 l 40.98412,40.98412 c 3.8641,3.8641 10.11244,3.8641 13.93543,0 l 11.63341,-11.6334 c 3.8641,-3.8641 3.8641,-10.11244 0.0411,-13.97654 z M 85.503488,138.12102 c -29.062964,0 -52.617531,-23.51346 -52.617531,-52.617532 0,-29.062964 23.513459,-52.617531 52.617531,-52.617531 29.062962,0 52.617532,23.513459 52.617532,52.617531 0,29.062962 -23.51346,52.617532 -52.617532,52.617532 z"
     id="path2"
     inkscape:connector-curvature="0"
     style="stroke-width:0.41107446;opacity:0.241" />
</svg>
